<mxfile host="app.diagrams.net" agent="Mozilla/5.0 (Windows NT 10.0; Win64; x64) AppleWebKit/537.36 (KHTML, like Gecko) Chrome/131.0.0.0 Safari/537.36" version="26.0.3">
  <diagram name="Page-1" id="6sDkYfJ07I_hXYms4CPI">
    <mxGraphModel dx="1254" dy="671" grid="1" gridSize="10" guides="1" tooltips="1" connect="1" arrows="1" fold="1" page="1" pageScale="1" pageWidth="827" pageHeight="1169" math="0" shadow="0">
      <root>
        <mxCell id="0" />
        <mxCell id="1" parent="0" />
        <mxCell id="Yh4zCrsgQntpN8cy_9lq-17" value="Normal User" style="swimlane;fontStyle=1;align=center;verticalAlign=top;childLayout=stackLayout;horizontal=1;startSize=26;horizontalStack=0;resizeParent=1;resizeParentMax=0;resizeLast=0;collapsible=1;marginBottom=0;whiteSpace=wrap;html=1;" vertex="1" parent="1">
          <mxGeometry x="40" y="210" width="120" height="130" as="geometry" />
        </mxCell>
        <mxCell id="Yh4zCrsgQntpN8cy_9lq-18" value="-name:String&lt;div&gt;-password:String&lt;/div&gt;" style="text;strokeColor=none;fillColor=none;align=left;verticalAlign=top;spacingLeft=4;spacingRight=4;overflow=hidden;rotatable=0;points=[[0,0.5],[1,0.5]];portConstraint=eastwest;whiteSpace=wrap;html=1;" vertex="1" parent="Yh4zCrsgQntpN8cy_9lq-17">
          <mxGeometry y="26" width="120" height="44" as="geometry" />
        </mxCell>
        <mxCell id="Yh4zCrsgQntpN8cy_9lq-19" value="" style="line;strokeWidth=1;fillColor=none;align=left;verticalAlign=middle;spacingTop=-1;spacingLeft=3;spacingRight=3;rotatable=0;labelPosition=right;points=[];portConstraint=eastwest;strokeColor=inherit;" vertex="1" parent="Yh4zCrsgQntpN8cy_9lq-17">
          <mxGeometry y="70" width="120" height="8" as="geometry" />
        </mxCell>
        <mxCell id="Yh4zCrsgQntpN8cy_9lq-20" value="+ register()&lt;div&gt;+ comment()&lt;/div&gt;&lt;div&gt;+ like()&lt;/div&gt;" style="text;strokeColor=none;fillColor=none;align=left;verticalAlign=top;spacingLeft=4;spacingRight=4;overflow=hidden;rotatable=0;points=[[0,0.5],[1,0.5]];portConstraint=eastwest;whiteSpace=wrap;html=1;" vertex="1" parent="Yh4zCrsgQntpN8cy_9lq-17">
          <mxGeometry y="78" width="120" height="52" as="geometry" />
        </mxCell>
        <mxCell id="Yh4zCrsgQntpN8cy_9lq-21" value="Administrator" style="swimlane;fontStyle=1;align=center;verticalAlign=top;childLayout=stackLayout;horizontal=1;startSize=26;horizontalStack=0;resizeParent=1;resizeParentMax=0;resizeLast=0;collapsible=1;marginBottom=0;whiteSpace=wrap;html=1;" vertex="1" parent="1">
          <mxGeometry x="600" y="110" width="130" height="120" as="geometry" />
        </mxCell>
        <mxCell id="Yh4zCrsgQntpN8cy_9lq-22" value="- manage1:people&lt;div&gt;- manage2:genres&lt;/div&gt;" style="text;strokeColor=none;fillColor=none;align=left;verticalAlign=top;spacingLeft=4;spacingRight=4;overflow=hidden;rotatable=0;points=[[0,0.5],[1,0.5]];portConstraint=eastwest;whiteSpace=wrap;html=1;" vertex="1" parent="Yh4zCrsgQntpN8cy_9lq-21">
          <mxGeometry y="26" width="130" height="34" as="geometry" />
        </mxCell>
        <mxCell id="Yh4zCrsgQntpN8cy_9lq-23" value="" style="line;strokeWidth=1;fillColor=none;align=left;verticalAlign=middle;spacingTop=-1;spacingLeft=3;spacingRight=3;rotatable=0;labelPosition=right;points=[];portConstraint=eastwest;strokeColor=inherit;" vertex="1" parent="Yh4zCrsgQntpN8cy_9lq-21">
          <mxGeometry y="60" width="130" height="8" as="geometry" />
        </mxCell>
        <mxCell id="Yh4zCrsgQntpN8cy_9lq-24" value="+ addDate()&lt;div&gt;+ manageData()&lt;/div&gt;&lt;div&gt;+ deleteData()&lt;/div&gt;" style="text;strokeColor=none;fillColor=none;align=left;verticalAlign=top;spacingLeft=4;spacingRight=4;overflow=hidden;rotatable=0;points=[[0,0.5],[1,0.5]];portConstraint=eastwest;whiteSpace=wrap;html=1;" vertex="1" parent="Yh4zCrsgQntpN8cy_9lq-21">
          <mxGeometry y="68" width="130" height="52" as="geometry" />
        </mxCell>
        <mxCell id="Yh4zCrsgQntpN8cy_9lq-112" value="" style="edgeStyle=orthogonalEdgeStyle;rounded=0;orthogonalLoop=1;jettySize=auto;html=1;exitX=0.363;exitY=-0.002;exitDx=0;exitDy=0;exitPerimeter=0;" edge="1" parent="1" source="Yh4zCrsgQntpN8cy_9lq-29">
          <mxGeometry relative="1" as="geometry">
            <mxPoint x="100" y="340" as="targetPoint" />
            <Array as="points">
              <mxPoint x="100" y="400" />
              <mxPoint x="100" y="339" />
            </Array>
          </mxGeometry>
        </mxCell>
        <mxCell id="Yh4zCrsgQntpN8cy_9lq-29" value="Search" style="swimlane;fontStyle=1;align=center;verticalAlign=top;childLayout=stackLayout;horizontal=1;startSize=26;horizontalStack=0;resizeParent=1;resizeParentMax=0;resizeLast=0;collapsible=1;marginBottom=0;whiteSpace=wrap;html=1;" vertex="1" parent="1">
          <mxGeometry x="30" y="400" width="160" height="160" as="geometry" />
        </mxCell>
        <mxCell id="Yh4zCrsgQntpN8cy_9lq-30" value="- term:String&lt;div&gt;-person:String&lt;/div&gt;&lt;div&gt;- comment:String&lt;/div&gt;" style="text;strokeColor=none;fillColor=none;align=left;verticalAlign=top;spacingLeft=4;spacingRight=4;overflow=hidden;rotatable=0;points=[[0,0.5],[1,0.5]];portConstraint=eastwest;whiteSpace=wrap;html=1;" vertex="1" parent="Yh4zCrsgQntpN8cy_9lq-29">
          <mxGeometry y="26" width="160" height="54" as="geometry" />
        </mxCell>
        <mxCell id="Yh4zCrsgQntpN8cy_9lq-31" value="" style="line;strokeWidth=1;fillColor=none;align=left;verticalAlign=middle;spacingTop=-1;spacingLeft=3;spacingRight=3;rotatable=0;labelPosition=right;points=[];portConstraint=eastwest;strokeColor=inherit;" vertex="1" parent="Yh4zCrsgQntpN8cy_9lq-29">
          <mxGeometry y="80" width="160" height="8" as="geometry" />
        </mxCell>
        <mxCell id="Yh4zCrsgQntpN8cy_9lq-32" value="+ termSearch(term)&lt;div&gt;+ personSearch(person)&lt;/div&gt;&lt;div&gt;+commentSearch(comment)&lt;/div&gt;" style="text;strokeColor=none;fillColor=none;align=left;verticalAlign=top;spacingLeft=4;spacingRight=4;overflow=hidden;rotatable=0;points=[[0,0.5],[1,0.5]];portConstraint=eastwest;whiteSpace=wrap;html=1;" vertex="1" parent="Yh4zCrsgQntpN8cy_9lq-29">
          <mxGeometry y="88" width="160" height="72" as="geometry" />
        </mxCell>
        <mxCell id="Yh4zCrsgQntpN8cy_9lq-113" value="" style="edgeStyle=orthogonalEdgeStyle;rounded=0;orthogonalLoop=1;jettySize=auto;html=1;entryX=0.65;entryY=1.016;entryDx=0;entryDy=0;entryPerimeter=0;" edge="1" parent="1" source="Yh4zCrsgQntpN8cy_9lq-33" target="Yh4zCrsgQntpN8cy_9lq-20">
          <mxGeometry relative="1" as="geometry">
            <mxPoint x="110" y="360" as="targetPoint" />
            <Array as="points">
              <mxPoint x="320" y="375" />
              <mxPoint x="180" y="375" />
              <mxPoint x="180" y="360" />
              <mxPoint x="118" y="360" />
            </Array>
          </mxGeometry>
        </mxCell>
        <mxCell id="Yh4zCrsgQntpN8cy_9lq-33" value="Registration" style="swimlane;fontStyle=1;align=center;verticalAlign=top;childLayout=stackLayout;horizontal=1;startSize=26;horizontalStack=0;resizeParent=1;resizeParentMax=0;resizeLast=0;collapsible=1;marginBottom=0;whiteSpace=wrap;html=1;" vertex="1" parent="1">
          <mxGeometry x="240" y="410" width="160" height="86" as="geometry" />
        </mxCell>
        <mxCell id="Yh4zCrsgQntpN8cy_9lq-34" value="- create-creationScreen" style="text;strokeColor=none;fillColor=none;align=left;verticalAlign=top;spacingLeft=4;spacingRight=4;overflow=hidden;rotatable=0;points=[[0,0.5],[1,0.5]];portConstraint=eastwest;whiteSpace=wrap;html=1;" vertex="1" parent="Yh4zCrsgQntpN8cy_9lq-33">
          <mxGeometry y="26" width="160" height="26" as="geometry" />
        </mxCell>
        <mxCell id="Yh4zCrsgQntpN8cy_9lq-35" value="" style="line;strokeWidth=1;fillColor=none;align=left;verticalAlign=middle;spacingTop=-1;spacingLeft=3;spacingRight=3;rotatable=0;labelPosition=right;points=[];portConstraint=eastwest;strokeColor=inherit;" vertex="1" parent="Yh4zCrsgQntpN8cy_9lq-33">
          <mxGeometry y="52" width="160" height="8" as="geometry" />
        </mxCell>
        <mxCell id="Yh4zCrsgQntpN8cy_9lq-36" value="+ creationScreen()" style="text;strokeColor=none;fillColor=none;align=left;verticalAlign=top;spacingLeft=4;spacingRight=4;overflow=hidden;rotatable=0;points=[[0,0.5],[1,0.5]];portConstraint=eastwest;whiteSpace=wrap;html=1;" vertex="1" parent="Yh4zCrsgQntpN8cy_9lq-33">
          <mxGeometry y="60" width="160" height="26" as="geometry" />
        </mxCell>
        <mxCell id="Yh4zCrsgQntpN8cy_9lq-109" value="" style="edgeStyle=orthogonalEdgeStyle;rounded=0;orthogonalLoop=1;jettySize=auto;html=1;" edge="1" parent="1" source="Yh4zCrsgQntpN8cy_9lq-37" target="Yh4zCrsgQntpN8cy_9lq-36">
          <mxGeometry relative="1" as="geometry" />
        </mxCell>
        <mxCell id="Yh4zCrsgQntpN8cy_9lq-37" value="CreationScreen" style="swimlane;fontStyle=1;align=center;verticalAlign=top;childLayout=stackLayout;horizontal=1;startSize=26;horizontalStack=0;resizeParent=1;resizeParentMax=0;resizeLast=0;collapsible=1;marginBottom=0;whiteSpace=wrap;html=1;" vertex="1" parent="1">
          <mxGeometry x="240" y="520" width="120" height="100" as="geometry" />
        </mxCell>
        <mxCell id="Yh4zCrsgQntpN8cy_9lq-38" value="- description:String" style="text;strokeColor=none;fillColor=none;align=left;verticalAlign=top;spacingLeft=4;spacingRight=4;overflow=hidden;rotatable=0;points=[[0,0.5],[1,0.5]];portConstraint=eastwest;whiteSpace=wrap;html=1;" vertex="1" parent="Yh4zCrsgQntpN8cy_9lq-37">
          <mxGeometry y="26" width="120" height="26" as="geometry" />
        </mxCell>
        <mxCell id="Yh4zCrsgQntpN8cy_9lq-39" value="" style="line;strokeWidth=1;fillColor=none;align=left;verticalAlign=middle;spacingTop=-1;spacingLeft=3;spacingRight=3;rotatable=0;labelPosition=right;points=[];portConstraint=eastwest;strokeColor=inherit;" vertex="1" parent="Yh4zCrsgQntpN8cy_9lq-37">
          <mxGeometry y="52" width="120" height="8" as="geometry" />
        </mxCell>
        <mxCell id="Yh4zCrsgQntpN8cy_9lq-40" value="+ choosing Genres()&lt;div&gt;+ createSeason()&lt;/div&gt;" style="text;strokeColor=none;fillColor=none;align=left;verticalAlign=top;spacingLeft=4;spacingRight=4;overflow=hidden;rotatable=0;points=[[0,0.5],[1,0.5]];portConstraint=eastwest;whiteSpace=wrap;html=1;" vertex="1" parent="Yh4zCrsgQntpN8cy_9lq-37">
          <mxGeometry y="60" width="120" height="40" as="geometry" />
        </mxCell>
        <mxCell id="Yh4zCrsgQntpN8cy_9lq-120" value="" style="edgeStyle=orthogonalEdgeStyle;rounded=0;orthogonalLoop=1;jettySize=auto;html=1;entryX=0.379;entryY=0.966;entryDx=0;entryDy=0;entryPerimeter=0;" edge="1" parent="1" source="Yh4zCrsgQntpN8cy_9lq-49" target="Yh4zCrsgQntpN8cy_9lq-88">
          <mxGeometry relative="1" as="geometry">
            <mxPoint x="400" y="180" as="targetPoint" />
            <Array as="points">
              <mxPoint x="280" y="190" />
              <mxPoint x="401" y="190" />
            </Array>
          </mxGeometry>
        </mxCell>
        <mxCell id="Yh4zCrsgQntpN8cy_9lq-49" value="People Working" style="swimlane;fontStyle=1;align=center;verticalAlign=top;childLayout=stackLayout;horizontal=1;startSize=26;horizontalStack=0;resizeParent=1;resizeParentMax=0;resizeLast=0;collapsible=1;marginBottom=0;whiteSpace=wrap;html=1;" vertex="1" parent="1">
          <mxGeometry x="220" y="240" width="140" height="100" as="geometry" />
        </mxCell>
        <mxCell id="Yh4zCrsgQntpN8cy_9lq-50" value="- name:String&lt;div&gt;- Birthdate:int&lt;/div&gt;&lt;div&gt;- nationality:String&lt;/div&gt;&lt;div&gt;-Place of birth:String&lt;/div&gt;" style="text;strokeColor=none;fillColor=none;align=left;verticalAlign=top;spacingLeft=4;spacingRight=4;overflow=hidden;rotatable=0;points=[[0,0.5],[1,0.5]];portConstraint=eastwest;whiteSpace=wrap;html=1;" vertex="1" parent="Yh4zCrsgQntpN8cy_9lq-49">
          <mxGeometry y="26" width="140" height="74" as="geometry" />
        </mxCell>
        <mxCell id="Yh4zCrsgQntpN8cy_9lq-121" value="" style="edgeStyle=orthogonalEdgeStyle;rounded=0;orthogonalLoop=1;jettySize=auto;html=1;" edge="1" parent="1" source="Yh4zCrsgQntpN8cy_9lq-53" target="Yh4zCrsgQntpN8cy_9lq-88">
          <mxGeometry relative="1" as="geometry">
            <Array as="points">
              <mxPoint x="480" y="197" />
              <mxPoint x="420" y="197" />
            </Array>
          </mxGeometry>
        </mxCell>
        <mxCell id="Yh4zCrsgQntpN8cy_9lq-53" value="MovieInfo" style="swimlane;fontStyle=1;align=center;verticalAlign=top;childLayout=stackLayout;horizontal=1;startSize=26;horizontalStack=0;resizeParent=1;resizeParentMax=0;resizeLast=0;collapsible=1;marginBottom=0;whiteSpace=wrap;html=1;" vertex="1" parent="1">
          <mxGeometry x="430" y="224" width="100" height="120" as="geometry" />
        </mxCell>
        <mxCell id="Yh4zCrsgQntpN8cy_9lq-54" value="- movie:Movie&lt;div&gt;- tv:Tv&lt;/div&gt;&lt;div&gt;- description&lt;/div&gt;&lt;div&gt;- mainActor&lt;/div&gt;&lt;div&gt;- director&lt;/div&gt;&lt;div&gt;- writer&lt;/div&gt;&lt;div&gt;&lt;br&gt;&lt;/div&gt;" style="text;strokeColor=none;fillColor=none;align=left;verticalAlign=top;spacingLeft=4;spacingRight=4;overflow=hidden;rotatable=0;points=[[0,0.5],[1,0.5]];portConstraint=eastwest;whiteSpace=wrap;html=1;" vertex="1" parent="Yh4zCrsgQntpN8cy_9lq-53">
          <mxGeometry y="26" width="100" height="94" as="geometry" />
        </mxCell>
        <mxCell id="Yh4zCrsgQntpN8cy_9lq-111" value="" style="edgeStyle=orthogonalEdgeStyle;rounded=0;orthogonalLoop=1;jettySize=auto;html=1;entryX=0.466;entryY=0.995;entryDx=0;entryDy=0;entryPerimeter=0;" edge="1" parent="1" source="Yh4zCrsgQntpN8cy_9lq-57" target="Yh4zCrsgQntpN8cy_9lq-54">
          <mxGeometry relative="1" as="geometry">
            <Array as="points">
              <mxPoint x="477" y="400" />
              <mxPoint x="477" y="400" />
            </Array>
          </mxGeometry>
        </mxCell>
        <mxCell id="Yh4zCrsgQntpN8cy_9lq-57" value="Movie" style="swimlane;fontStyle=1;align=center;verticalAlign=top;childLayout=stackLayout;horizontal=1;startSize=26;horizontalStack=0;resizeParent=1;resizeParentMax=0;resizeLast=0;collapsible=1;marginBottom=0;whiteSpace=wrap;html=1;" vertex="1" parent="1">
          <mxGeometry x="420" y="420" width="110" height="70" as="geometry" />
        </mxCell>
        <mxCell id="Yh4zCrsgQntpN8cy_9lq-58" value="+ single()&lt;div&gt;+ series()&lt;/div&gt;" style="text;strokeColor=none;fillColor=none;align=left;verticalAlign=top;spacingLeft=4;spacingRight=4;overflow=hidden;rotatable=0;points=[[0,0.5],[1,0.5]];portConstraint=eastwest;whiteSpace=wrap;html=1;" vertex="1" parent="Yh4zCrsgQntpN8cy_9lq-57">
          <mxGeometry y="26" width="110" height="44" as="geometry" />
        </mxCell>
        <mxCell id="Yh4zCrsgQntpN8cy_9lq-114" value="" style="edgeStyle=orthogonalEdgeStyle;rounded=0;orthogonalLoop=1;jettySize=auto;html=1;" edge="1" parent="1" source="Yh4zCrsgQntpN8cy_9lq-61">
          <mxGeometry relative="1" as="geometry">
            <mxPoint x="490" y="340" as="targetPoint" />
            <Array as="points">
              <mxPoint x="575" y="400" />
              <mxPoint x="490" y="400" />
            </Array>
          </mxGeometry>
        </mxCell>
        <mxCell id="Yh4zCrsgQntpN8cy_9lq-61" value="TV" style="swimlane;fontStyle=1;align=center;verticalAlign=top;childLayout=stackLayout;horizontal=1;startSize=26;horizontalStack=0;resizeParent=1;resizeParentMax=0;resizeLast=0;collapsible=1;marginBottom=0;whiteSpace=wrap;html=1;" vertex="1" parent="1">
          <mxGeometry x="540" y="426" width="70" height="70" as="geometry" />
        </mxCell>
        <mxCell id="Yh4zCrsgQntpN8cy_9lq-62" value="+ single()&lt;div&gt;+ season&lt;/div&gt;" style="text;strokeColor=none;fillColor=none;align=left;verticalAlign=top;spacingLeft=4;spacingRight=4;overflow=hidden;rotatable=0;points=[[0,0.5],[1,0.5]];portConstraint=eastwest;whiteSpace=wrap;html=1;" vertex="1" parent="Yh4zCrsgQntpN8cy_9lq-61">
          <mxGeometry y="26" width="70" height="44" as="geometry" />
        </mxCell>
        <mxCell id="Yh4zCrsgQntpN8cy_9lq-122" value="" style="edgeStyle=orthogonalEdgeStyle;rounded=0;orthogonalLoop=1;jettySize=auto;html=1;" edge="1" parent="1" source="Yh4zCrsgQntpN8cy_9lq-65">
          <mxGeometry relative="1" as="geometry">
            <mxPoint x="639" y="230" as="targetPoint" />
            <Array as="points">
              <mxPoint x="620" y="260" />
              <mxPoint x="639" y="260" />
            </Array>
          </mxGeometry>
        </mxCell>
        <mxCell id="Yh4zCrsgQntpN8cy_9lq-65" value="People" style="swimlane;fontStyle=1;align=center;verticalAlign=top;childLayout=stackLayout;horizontal=1;startSize=26;horizontalStack=0;resizeParent=1;resizeParentMax=0;resizeLast=0;collapsible=1;marginBottom=0;whiteSpace=wrap;html=1;" vertex="1" parent="1">
          <mxGeometry x="560" y="300" width="120" height="90" as="geometry" />
        </mxCell>
        <mxCell id="Yh4zCrsgQntpN8cy_9lq-66" value="- name:String&lt;div&gt;&#39;- description:String&lt;/div&gt;&lt;div&gt;- Birthdate:int&lt;/div&gt;" style="text;strokeColor=none;fillColor=none;align=left;verticalAlign=top;spacingLeft=4;spacingRight=4;overflow=hidden;rotatable=0;points=[[0,0.5],[1,0.5]];portConstraint=eastwest;whiteSpace=wrap;html=1;" vertex="1" parent="Yh4zCrsgQntpN8cy_9lq-65">
          <mxGeometry y="26" width="120" height="64" as="geometry" />
        </mxCell>
        <mxCell id="Yh4zCrsgQntpN8cy_9lq-123" value="" style="edgeStyle=orthogonalEdgeStyle;rounded=0;orthogonalLoop=1;jettySize=auto;html=1;entryX=0.41;entryY=1.041;entryDx=0;entryDy=0;entryPerimeter=0;" edge="1" parent="1" source="Yh4zCrsgQntpN8cy_9lq-69" target="Yh4zCrsgQntpN8cy_9lq-24">
          <mxGeometry relative="1" as="geometry">
            <mxPoint x="650" y="220" as="targetPoint" />
            <Array as="points">
              <mxPoint x="755" y="270" />
              <mxPoint x="654" y="270" />
              <mxPoint x="654" y="240" />
            </Array>
          </mxGeometry>
        </mxCell>
        <mxCell id="Yh4zCrsgQntpN8cy_9lq-69" value="Genre" style="swimlane;fontStyle=1;align=center;verticalAlign=top;childLayout=stackLayout;horizontal=1;startSize=26;horizontalStack=0;resizeParent=1;resizeParentMax=0;resizeLast=0;collapsible=1;marginBottom=0;whiteSpace=wrap;html=1;" vertex="1" parent="1">
          <mxGeometry x="720" y="300" width="70" height="80" as="geometry" />
        </mxCell>
        <mxCell id="Yh4zCrsgQntpN8cy_9lq-70" value="- Horror&lt;div&gt;- action&lt;/div&gt;&lt;div&gt;- adventure&lt;/div&gt;" style="text;strokeColor=none;fillColor=none;align=left;verticalAlign=top;spacingLeft=4;spacingRight=4;overflow=hidden;rotatable=0;points=[[0,0.5],[1,0.5]];portConstraint=eastwest;whiteSpace=wrap;html=1;" vertex="1" parent="Yh4zCrsgQntpN8cy_9lq-69">
          <mxGeometry y="26" width="70" height="54" as="geometry" />
        </mxCell>
        <mxCell id="Yh4zCrsgQntpN8cy_9lq-87" value="Easy Movies" style="swimlane;fontStyle=1;align=center;verticalAlign=top;childLayout=stackLayout;horizontal=1;startSize=26;horizontalStack=0;resizeParent=1;resizeParentMax=0;resizeLast=0;collapsible=1;marginBottom=0;whiteSpace=wrap;html=1;" vertex="1" parent="1">
          <mxGeometry x="340" y="80" width="160" height="90" as="geometry" />
        </mxCell>
        <mxCell id="Yh4zCrsgQntpN8cy_9lq-88" value="-people:PeopleWorking&lt;div&gt;-info:movieinfo&lt;/div&gt;&lt;div&gt;-newUser:User&lt;/div&gt;" style="text;strokeColor=none;fillColor=none;align=left;verticalAlign=top;spacingLeft=4;spacingRight=4;overflow=hidden;rotatable=0;points=[[0,0.5],[1,0.5]];portConstraint=eastwest;whiteSpace=wrap;html=1;" vertex="1" parent="Yh4zCrsgQntpN8cy_9lq-87">
          <mxGeometry y="26" width="160" height="64" as="geometry" />
        </mxCell>
        <mxCell id="Yh4zCrsgQntpN8cy_9lq-96" value="Relation" style="endArrow=open;html=1;endSize=12;startArrow=diamondThin;startSize=14;startFill=0;edgeStyle=orthogonalEdgeStyle;rounded=0;exitX=-0.023;exitY=0.202;exitDx=0;exitDy=0;exitPerimeter=0;" edge="1" parent="1" source="Yh4zCrsgQntpN8cy_9lq-88">
          <mxGeometry relative="1" as="geometry">
            <mxPoint x="330" y="400" as="sourcePoint" />
            <mxPoint x="100" y="200" as="targetPoint" />
          </mxGeometry>
        </mxCell>
        <mxCell id="Yh4zCrsgQntpN8cy_9lq-97" value="0..n" style="edgeLabel;resizable=0;html=1;align=left;verticalAlign=top;" connectable="0" vertex="1" parent="Yh4zCrsgQntpN8cy_9lq-96">
          <mxGeometry x="-1" relative="1" as="geometry" />
        </mxCell>
        <mxCell id="Yh4zCrsgQntpN8cy_9lq-98" value="1" style="edgeLabel;resizable=0;html=1;align=right;verticalAlign=top;" connectable="0" vertex="1" parent="Yh4zCrsgQntpN8cy_9lq-96">
          <mxGeometry x="1" relative="1" as="geometry" />
        </mxCell>
        <mxCell id="Yh4zCrsgQntpN8cy_9lq-105" value="Relation" style="endArrow=open;html=1;endSize=12;startArrow=diamondThin;startSize=14;startFill=0;edgeStyle=orthogonalEdgeStyle;rounded=0;entryX=0.026;entryY=0.12;entryDx=0;entryDy=0;entryPerimeter=0;exitX=0.984;exitY=0.032;exitDx=0;exitDy=0;exitPerimeter=0;" edge="1" parent="1" source="Yh4zCrsgQntpN8cy_9lq-88" target="Yh4zCrsgQntpN8cy_9lq-21">
          <mxGeometry relative="1" as="geometry">
            <mxPoint x="510" y="110" as="sourcePoint" />
            <mxPoint x="480" y="410" as="targetPoint" />
          </mxGeometry>
        </mxCell>
        <mxCell id="Yh4zCrsgQntpN8cy_9lq-106" value="0..n" style="edgeLabel;resizable=0;html=1;align=left;verticalAlign=top;" connectable="0" vertex="1" parent="Yh4zCrsgQntpN8cy_9lq-105">
          <mxGeometry x="-1" relative="1" as="geometry" />
        </mxCell>
        <mxCell id="Yh4zCrsgQntpN8cy_9lq-107" value="1" style="edgeLabel;resizable=0;html=1;align=right;verticalAlign=top;" connectable="0" vertex="1" parent="Yh4zCrsgQntpN8cy_9lq-105">
          <mxGeometry x="1" relative="1" as="geometry" />
        </mxCell>
        <mxCell id="Yh4zCrsgQntpN8cy_9lq-119" value="" style="shape=singleArrow;whiteSpace=wrap;html=1;arrowWidth=0.4;arrowSize=0.4;verticalAlign=top;fontStyle=1;startSize=26;" vertex="1" parent="1">
          <mxGeometry x="250" y="80" width="80" height="60" as="geometry" />
        </mxCell>
        <mxCell id="Yh4zCrsgQntpN8cy_9lq-127" value="" style="line;strokeWidth=1;fillColor=none;align=left;verticalAlign=middle;spacingTop=-1;spacingLeft=3;spacingRight=3;rotatable=0;labelPosition=right;points=[];portConstraint=eastwest;strokeColor=inherit;" vertex="1" parent="1">
          <mxGeometry x="360" y="585" width="280" height="8" as="geometry" />
        </mxCell>
        <mxCell id="Yh4zCrsgQntpN8cy_9lq-130" value="" style="endArrow=none;html=1;rounded=0;exitX=1;exitY=0.625;exitDx=0;exitDy=0;exitPerimeter=0;entryX=0.664;entryY=0.996;entryDx=0;entryDy=0;entryPerimeter=0;" edge="1" parent="1" source="Yh4zCrsgQntpN8cy_9lq-127" target="Yh4zCrsgQntpN8cy_9lq-66">
          <mxGeometry width="50" height="50" relative="1" as="geometry">
            <mxPoint x="380" y="490" as="sourcePoint" />
            <mxPoint x="430" y="440" as="targetPoint" />
            <Array as="points" />
          </mxGeometry>
        </mxCell>
        <mxCell id="Yh4zCrsgQntpN8cy_9lq-132" value="" style="endArrow=none;html=1;rounded=0;exitX=0.122;exitY=0.61;exitDx=0;exitDy=0;exitPerimeter=0;" edge="1" parent="1" source="Yh4zCrsgQntpN8cy_9lq-127">
          <mxGeometry width="50" height="50" relative="1" as="geometry">
            <mxPoint x="380" y="490" as="sourcePoint" />
            <mxPoint x="750" y="650" as="targetPoint" />
            <Array as="points">
              <mxPoint x="394" y="650" />
            </Array>
          </mxGeometry>
        </mxCell>
        <mxCell id="Yh4zCrsgQntpN8cy_9lq-134" value="" style="endArrow=none;html=1;rounded=0;" edge="1" parent="1">
          <mxGeometry width="50" height="50" relative="1" as="geometry">
            <mxPoint x="750" y="650" as="sourcePoint" />
            <mxPoint x="750" y="380" as="targetPoint" />
            <Array as="points" />
          </mxGeometry>
        </mxCell>
      </root>
    </mxGraphModel>
  </diagram>
</mxfile>
